<?xml version="1.0" standalone="no"?>
<!DOCTYPE svg PUBLIC "-//W3C//DTD SVG 20010904//EN"
 "http://www.w3.org/TR/2001/REC-SVG-20010904/DTD/svg10.dtd">
<svg version="1.0" xmlns="http://www.w3.org/2000/svg"
 width="180.000000pt" height="180.000000pt" viewBox="0 0 180.000000 180.000000"
 preserveAspectRatio="xMidYMid meet">
<metadata>
Created by potrace 1.14, written by Peter Selinger 2001-2017
</metadata>
<g transform="translate(0.000000,180.000000) scale(0.100000,-0.100000)"
fill="#000000" stroke="none">
<path d="M0 900 l0 -900 900 0 900 0 0 900 0 900 -900 0 -900 0 0 -900z m1028
379 c24 -8 30 -14 21 -20 -7 -4 -20 -4 -29 1 -9 5 -62 9 -118 9 -91 1 -103 -1
-112 -19 -6 -11 -16 -20 -23 -19 -9 0 -9 2 1 6 16 6 15 23 -2 23 -29 0 -166
-94 -166 -114 0 -5 8 -2 18 5 15 13 16 12 3 -4 -8 -9 -16 -15 -19 -12 -3 3
-12 -1 -21 -8 -8 -6 -5 2 7 20 42 60 138 121 227 144 40 11 172 4 213 -12z
m79 -55 c-9 -9 -28 6 -21 18 4 6 10 6 17 -1 6 -6 8 -13 4 -17z m-3 -63 c-2 -3
-13 5 -24 16 -10 12 -16 23 -13 27 3 3 14 -5 23 -17 10 -12 16 -24 14 -26z
m-287 23 c-10 -11 -75 -9 -71 1 3 6 20 9 40 7 19 -2 33 -6 31 -8z m471 -64
l52 0 0 -45 c0 -38 -3 -45 -20 -45 -15 0 -20 7 -20 25 0 18 -5 25 -20 25 -11
0 -20 -5 -20 -11 0 -5 -4 -8 -9 -4 -17 10 -41 -26 -41 -59 0 -33 18 -57 46
-63 8 -2 22 -5 32 -7 9 -3 25 -5 35 -5 10 -1 17 -9 17 -20 0 -47 -127 -21
-161 32 -28 44 -21 109 16 147 25 26 26 28 8 41 -18 15 -43 53 -43 66 0 5 17
-11 38 -35 35 -40 40 -42 90 -42z m-361 48 c-3 -8 -6 -5 -6 6 -1 11 2 17 5 13
3 -3 4 -12 1 -19z m73 12 c0 -5 -4 -10 -9 -10 -6 0 -13 5 -16 10 -3 6 1 10 9
10 9 0 16 -4 16 -10z m-310 -4 c0 -2 -8 -10 -17 -17 -16 -13 -17 -12 -4 4 13
16 21 21 21 13z m200 -218 c-10 -51 -19 -59 -72 -65 -61 -7 -97 22 -99 80 -2
41 -2 41 -8 9 -3 -18 -9 -33 -13 -32 -5 0 -15 0 -23 0 -10 0 -15 10 -15 33 0
31 -1 30 -29 -23 -38 -72 -63 -74 -99 -7 -14 26 -30 47 -34 47 -10 0 -9 -39 1
-65 10 -24 -4 -45 -30 -45 -18 0 -19 9 -19 115 0 113 0 115 23 115 17 0 30
-15 60 -75 22 -41 43 -75 48 -75 4 0 24 34 43 75 31 66 38 75 62 75 26 0 26
-2 22 -45 -3 -25 -2 -48 3 -51 5 -3 9 6 9 20 0 13 3 31 6 40 5 13 8 14 20 1 9
-9 15 -36 15 -70 1 -74 24 -99 70 -75 16 9 19 22 19 95 0 72 2 84 18 87 14 3
18 -7 23 -61 3 -35 3 -81 -1 -103z m240 67 c0 -73 3 -94 15 -99 8 -3 15 -12
15 -21 0 -11 -12 -15 -50 -15 -42 0 -50 3 -50 19 0 10 6 21 13 24 8 3 12 31
12 93 0 88 6 107 32 97 9 -4 13 -30 13 -98z m-94 70 c8 -13 13 -28 10 -34 -7
-11 -46 -2 -46 11 0 5 -10 8 -22 6 -15 -2 -23 -10 -23 -22 0 -14 14 -23 55
-37 30 -10 50 -18 44 -18 -6 -1 -9 -14 -6 -32 5 -32 -28 -79 -55 -79 -17 0
-17 29 1 49 20 22 6 41 -35 50 -44 9 -64 46 -48 87 13 36 25 44 71 44 29 0 41
-6 54 -25z m-213 -92 c-7 -2 -19 -2 -25 0 -7 3 -2 5 12 5 14 0 19 -2 13 -5z
m464 -25 c-3 -8 -6 -5 -6 6 -1 11 2 17 5 13 3 -3 4 -12 1 -19z m-1027 -153 c0
-22 -3 -25 -25 -19 -25 6 -59 -11 -50 -26 3 -4 21 -11 40 -14 41 -8 61 -40 51
-81 -13 -52 -146 -65 -146 -14 0 14 9 18 48 21 55 4 61 18 13 34 -43 14 -64
41 -56 74 9 36 32 50 82 50 39 0 43 -2 43 -25z m90 -15 c0 -39 1 -40 35 -40
34 0 35 1 35 40 0 36 2 40 25 40 l26 0 -3 -102 c-3 -95 -4 -103 -23 -103 -16
0 -21 8 -25 40 -5 37 -7 40 -35 40 -27 0 -30 -3 -35 -40 -4 -32 -9 -40 -25
-40 -19 0 -20 8 -23 103 l-3 102 26 0 c23 0 25 -4 25 -40z m312 21 c46 -37 34
-156 -19 -180 -25 -11 -25 -12 -8 -39 l18 -27 -29 26 c-16 15 -44 30 -62 34
-48 10 -65 43 -60 115 3 44 9 64 24 75 28 21 106 19 136 -4z m103 -38 c11 -58
24 -79 27 -42 1 29 3 36 12 72 7 21 14 27 36 27 27 0 29 -4 36 -47 8 -56 22
-99 23 -71 1 9 6 40 12 68 9 44 14 50 36 50 22 0 25 -4 21 -25 -5 -22 -2 -25
26 -26 l31 -2 -34 -6 c-29 -5 -36 -11 -44 -41 -28 -115 -26 -111 -55 -108 -24
3 -29 10 -42 63 l-14 60 -14 -62 c-12 -56 -17 -63 -37 -63 -13 0 -27 5 -31 11
-7 12 -54 178 -54 192 0 5 12 7 28 5 24 -3 28 -9 37 -55z m425 32 c0 -21 -5
-25 -29 -25 l-30 0 1 -80 c1 -55 -2 -84 -12 -93 -8 -7 -10 -8 -7 -1 4 7 -2 14
-13 17 -17 4 -20 14 -21 59 -1 29 -1 61 0 70 1 10 -7 18 -21 20 -17 2 -24 11
-26 31 l-3 27 80 0 c80 0 81 0 81 -25z m68 -77 c-3 -100 -4 -103 -27 -106 -13
-2 -47 -23 -75 -46 -28 -23 -75 -52 -104 -64 -99 -43 -272 -37 -301 10 -14 22
-13 22 11 6 19 -13 50 -17 128 -17 92 0 105 2 117 19 8 11 19 20 25 20 6 0 6
-6 -2 -15 -7 -9 -11 -17 -8 -20 8 -8 107 50 148 87 38 33 41 41 40 80 -1 24
-1 67 -1 96 1 49 3 52 26 52 l26 0 -3 -102z m114 51 l22 -51 23 51 c20 47 25
52 50 49 l28 -3 0 -100 c0 -93 -1 -100 -20 -100 -17 0 -21 8 -25 55 l-5 55
-18 -38 c-21 -48 -45 -46 -69 3 l-16 35 -4 -55 c-3 -47 -6 -55 -23 -55 -19 0
-20 8 -23 103 l-3 102 31 0 c28 0 33 -5 52 -51z m288 26 c0 -22 -4 -25 -40
-25 -29 0 -40 -4 -40 -15 0 -10 11 -15 35 -15 28 0 35 -4 35 -20 0 -16 -7 -20
-35 -20 -28 0 -35 -4 -35 -20 0 -17 7 -20 46 -20 41 0 45 -2 42 -22 -3 -21 -9
-23 -70 -26 l-68 -3 0 106 0 105 65 0 c63 0 65 -1 65 -25z m-938 -205 c10 -10
14 -21 10 -24 -4 -2 -15 7 -25 20 -21 29 -9 32 15 4z m108 -6 c0 -2 -7 -4 -15
-4 -8 0 -15 4 -15 10 0 5 7 7 15 4 8 -4 15 -8 15 -10z m225 3 c-4 -8 -20 -11
-53 -7 l-47 4 50 7 c28 3 51 7 52 7 1 1 0 -4 -2 -11z m-345 -53 c0 -8 -4 -12
-10 -9 -5 3 -10 10 -10 16 0 5 5 9 10 9 6 0 10 -7 10 -16z"/>
<path d="M562 798 c-30 -30 0 -108 40 -108 29 0 49 68 30 98 -12 18 -56 24
-70 10z"/>
</g>
</svg>
